<?xml version="1.0" standalone="no"?><!DOCTYPE svg PUBLIC "-//W3C//DTD SVG 1.1//EN" "http://www.w3.org/Graphics/SVG/1.1/DTD/svg11.dtd"><svg class="icon" width="200px" height="175.64px" viewBox="0 0 1166 1024" version="1.1" xmlns="http://www.w3.org/2000/svg"><path d="M973.716745 85.333333 973.760145 85.333333 771.526335 0 367.275704 0 165.041892 84.565333 5.207746 267.733333 569.379317 1024 1133.550892 268.117333 973.716745 85.333333 973.716745 85.333333ZM1084.641555 269.013333 878.718934 422.4 878.675534 422.4 781.898409 210.730667 959.655855 125.226667 1084.641555 269.013333 1084.641555 269.013333ZM841.136425 430.933335 295.756106 430.933335 389.799166 226.133333 747.093363 226.133333 841.136425 430.933335 841.136425 430.933335ZM373.785374 38.4 763.063759 38.4 920.163844 103.637333 747.093363 187.733333 389.799166 187.733333 216.772086 103.637333 373.785374 38.4 373.785374 38.4ZM177.323474 125.866667 354.994121 210.730667 258.130202 422.4 258.086804 422.4 52.250976 269.013333 177.323474 125.866667 177.323474 125.866667ZM131.191598 375.765335 249.667628 464.085335 400.127848 735.573335 131.191598 375.765335 131.191598 375.765335ZM568.424568 960.64 295.756106 469.333335 841.112993 469.333335 842.785541 469.717335 842.785541 469.333335 841.112993 469.333335 568.424568 960.64 568.424568 960.64ZM736.764684 735.573335 887.181506 464.085762 1005.657536 375.765762 736.764684 735.573335 736.764684 735.573335Z" fill="#8a8a8a" /></svg>